<svg width="27" height="27" viewBox="0 0 27 27" fill="none" xmlns="http://www.w3.org/2000/svg">
<mask id="mask0_10_65" style="mask-type:alpha" maskUnits="userSpaceOnUse" x="0" y="0" width="27" height="27">
<rect width="26.4707" height="26.4707" fill="#D9D9D9"/>
</mask>
<g mask="url(#mask0_10_65)">
<path d="M5.51448 19.6876C6.50713 18.7133 7.66063 17.9458 8.97497 17.3852C10.2893 16.8245 11.7094 16.5442 13.2351 16.5442C14.7608 16.5442 16.1809 16.8245 17.4952 17.3852C18.8096 17.9458 19.963 18.7133 20.9557 19.6876V5.51473H5.51448V19.6876ZM13.2351 14.3383C14.3013 14.3383 15.2112 13.9614 15.9649 13.2078C16.7186 12.4541 17.0954 11.5442 17.0954 10.478C17.0954 9.41179 16.7186 8.50187 15.9649 7.74819C15.2112 6.99451 14.3013 6.61767 13.2351 6.61767C12.1689 6.61767 11.259 6.99451 10.5053 7.74819C9.75163 8.50187 9.37479 9.41179 9.37479 10.478C9.37479 11.5442 9.75163 12.4541 10.5053 13.2078C11.259 13.9614 12.1689 14.3383 13.2351 14.3383ZM5.51448 23.1618C4.90786 23.1618 4.38856 22.9458 3.95657 22.5139C3.52459 22.0819 3.30859 21.5626 3.30859 20.9559V5.51473C3.30859 4.90811 3.52459 4.3888 3.95657 3.95682C4.38856 3.52483 4.90786 3.30884 5.51448 3.30884H20.9557C21.5623 3.30884 22.0816 3.52483 22.5136 3.95682C22.9456 4.3888 23.1616 4.90811 23.1616 5.51473V20.9559C23.1616 21.5626 22.9456 22.0819 22.5136 22.5139C22.0816 22.9458 21.5623 23.1618 20.9557 23.1618H5.51448ZM7.41706 20.9559H19.0531C18.2443 20.239 17.3298 19.6922 16.3095 19.3153C15.2893 18.9385 14.2645 18.7501 13.2351 18.7501C12.2057 18.7501 11.1717 18.9385 10.1331 19.3153C9.09445 19.6922 8.18912 20.239 7.41706 20.9559ZM13.2351 12.1324C12.7755 12.1324 12.3849 11.9715 12.0632 11.6499C11.7415 11.3282 11.5807 10.9375 11.5807 10.478C11.5807 10.0184 11.7415 9.62779 12.0632 9.3061C12.3849 8.9844 12.7755 8.82356 13.2351 8.82356C13.6946 8.82356 14.0853 8.9844 14.407 9.3061C14.7287 9.62779 14.8895 10.0184 14.8895 10.478C14.8895 10.9375 14.7287 11.3282 14.407 11.6499C14.0853 11.9715 13.6946 12.1324 13.2351 12.1324Z" fill="#1C1B1F"/>
</g>
</svg>
